<svg width="848.4099365234375px" height="122.42509765625px" xmlns="http://www.w3.org/2000/svg" viewBox="-174.20496826171876 13.787451171874999 848.4099365234375 122.42509765625" style="background: rgb(115, 45, 34);" preserveAspectRatio="xMidYMid"><defs><filter id="editing-extrude-glow"><feFlood flood-color="#000000" result="flood-1"></feFlood><feMorphology operator="erode" radius="1" in="SourceAlpha" result="erode"></feMorphology><feComposite operator="in" in="flood-1" in2="erode" result="comp1"></feComposite><feConvolveMatrix order="4,4" divisor="1" in="comp1" result="convolve" kernelMatrix="0 0 0 0 0 0 0 0 1 1 1 1 0 0 0 0"></feConvolveMatrix><feOffset dx="-4" dy="0" in="convolve" result="extrude"></feOffset><feComposite operator="in" in="flood-1" in2="extrude" result="comp-extrude"></feComposite><feFlood flood-color="#000000" result="flood-2"></feFlood><feComposite operator="in" in="flood-2" in2="SourceAlpha" result="comp2"></feComposite><feMorphology operator="dilate" radius="1" in="comp2" result="dilate"></feMorphology><feOffset dx="-6" dy="0" in="dilate" result="offset"></feOffset><feGaussianBlur in="offset" stdDeviation="5.8" result="blur"></feGaussianBlur><feComponentTransfer in="blur" result="shadow"><feFuncA type="linear" slope="0.8" intercept="-0.2"></feFuncA></feComponentTransfer><feMerge><feMergeNode in="shadow"></feMergeNode><feMergeNode in="comp-extrude"></feMergeNode><feMergeNode in="SourceGraphic"></feMergeNode></feMerge></filter></defs><g filter="url(#editing-extrude-glow)"><g transform="translate(-52.03002321720123, 96.78000068664551)"><path d="M1.10 0L1.10-9.02L3.85-9.02L3.85-33.77L1.10-33.77L1.10-42.79L25.25-42.79L25.25-42.79Q32.34-42.79 36.08-39.74L36.08-39.74L36.08-39.74Q39.82-36.69 39.82-29.86L39.82-29.86L39.82-29.86Q39.82-23.05 36.08-19.99L36.08-19.99L36.08-19.99Q32.34-16.94 25.25-16.94L25.25-16.94L19.25-16.94L19.25-9.02L24.53-9.02L24.53 0L1.10 0ZM19.25-24.75L21.12-24.75L21.12-24.75Q24.31-24.75 24.31-28.27L24.31-28.27L24.31-30.25L24.31-30.25Q24.31-32.06 23.51-32.92L23.51-32.92L23.51-32.92Q22.71-33.77 21.12-33.77L21.12-33.77L19.25-33.77L19.25-24.75ZM56.87 0.77L56.87 0.77Q49.06 0.77 44.66-3.33L44.66-3.33L44.66-3.33Q40.26-7.42 40.26-15.29L40.26-15.29L40.26-15.29Q40.26-23.16 44.66-27.25L44.66-27.25L44.66-27.25Q49.06-31.35 56.87-31.35L56.87-31.35L56.87-31.35Q64.79-31.35 69.14-27.20L69.14-27.20L69.14-27.20Q73.48-23.05 73.48-15.29L73.48-15.29L73.48-15.29Q73.48-7.42 69.08-3.33L69.08-3.33L69.08-3.33Q64.68 0.77 56.87 0.77L56.87 0.77ZM56.87-9.02L56.87-9.02Q58.47-9.02 59.26-9.87L59.26-9.87L59.26-9.87Q60.06-10.72 60.06-12.54L60.06-12.54L60.06-18.04L60.06-18.04Q60.06-19.86 59.26-20.71L59.26-20.71L59.26-20.71Q58.47-21.56 56.87-21.56L56.87-21.56L56.87-21.56Q55.28-21.56 54.48-20.71L54.48-20.71L54.48-20.71Q53.68-19.86 53.68-18.04L53.68-18.04L53.68-12.54L53.68-12.54Q53.68-10.72 54.48-9.87L54.48-9.87L54.48-9.87Q55.28-9.02 56.87-9.02L56.87-9.02ZM88.61 0.77L88.61 0.77Q81.67 0.77 75.24-1.43L75.24-1.43L75.24-9.57L84.15-9.57L84.15-9.02L84.15-9.02Q84.15-6.38 87.50-6.38L87.50-6.38L87.50-6.38Q90.47-6.38 90.47-8.42L90.47-8.42L90.47-8.42Q90.47-9.52 89.62-10.06L89.62-10.06L89.62-10.06Q88.77-10.62 86.63-11L86.63-11L83.88-11.49L83.88-11.49Q75.24-13.04 75.24-21.29L75.24-21.29L75.24-21.29Q75.24-26.07 78.87-28.71L78.87-28.71L78.87-28.71Q82.50-31.35 88.66-31.35L88.66-31.35L88.66-31.35Q95.53-31.35 100.27-29.04L100.27-29.04L100.27-21.39L91.91-21.39L91.91-21.95L91.91-21.95Q91.91-23.05 91.16-23.62L91.16-23.62L91.16-23.62Q90.42-24.20 88.99-24.20L88.99-24.20L88.99-24.20Q86.24-24.20 86.24-22.44L86.24-22.44L86.24-22.44Q86.24-21.50 87.01-21.01L87.01-21.01L87.01-21.01Q87.78-20.52 89.81-20.07L89.81-20.07L92.95-19.47L92.95-19.47Q97.84-18.54 99.94-16.00L99.94-16.00L99.94-16.00Q102.03-13.47 102.03-9.52L102.03-9.52L102.03-9.52Q102.03-4.51 98.53-1.87L98.53-1.87L98.53-1.87Q95.04 0.77 88.61 0.77L88.61 0.77ZM117.37 0.77L117.37 0.77Q111.54 0.77 108.60-2.06L108.60-2.06L108.60-2.06Q105.66-4.90 105.66-11.61L105.66-11.61L105.66-21.56L103.23-21.56L103.23-30.58L103.23-30.58Q105.33-30.58 106.37-31.65L106.37-31.65L106.37-31.65Q107.42-32.73 107.42-34.59L107.42-34.59L107.42-37.07L119.08-37.07L119.08-30.58L126.50-30.58L126.50-21.56L119.08-21.56L119.08-12.54L119.08-12.54Q119.08-10.72 119.87-9.87L119.87-9.87L119.87-9.87Q120.67-9.02 122.27-9.02L122.27-9.02L122.27-9.02Q124.36-9.02 126.83-9.52L126.83-9.52L126.83-0.88L126.83-0.88Q125.29-0.28 122.68 0.25L122.68 0.25L122.68 0.25Q120.06 0.77 117.37 0.77L117.37 0.77ZM144.98 0.77L144.98 0.77Q137.17 0.77 132.77-3.33L132.77-3.33L132.77-3.33Q128.37-7.42 128.37-15.29L128.37-15.29L128.37-15.29Q128.37-23.16 132.77-27.25L132.77-27.25L132.77-27.25Q137.17-31.35 144.98-31.35L144.98-31.35L144.98-31.35Q152.73-31.35 156.17-27.31L156.17-27.31L156.17-27.31Q159.61-23.27 159.61-17.27L159.61-17.27L159.61-13.31L141.79-13.31L141.79-12.98L141.79-12.98Q141.79-10.95 143-9.98L143-9.98L143-9.98Q144.21-9.02 147.01-9.02L147.01-9.02L147.01-9.02Q150.37-9.02 153.39-9.52L153.39-9.52L153.39-9.52Q156.42-10.01 158.67-10.78L158.67-10.78L158.67-1.98L158.67-1.98Q156.75-0.94 153.04-0.08L153.04-0.08L153.04-0.08Q149.32 0.77 144.98 0.77L144.98 0.77ZM141.79-19.36L148.17-19.36L148.17-20.02L148.17-20.02Q148.17-21.89 147.37-22.71L147.37-22.71L147.37-22.71Q146.57-23.54 144.98-23.54L144.98-23.54L144.98-23.54Q143.38-23.54 142.59-22.69L142.59-22.69L142.59-22.69Q141.79-21.84 141.79-20.02L141.79-20.02L141.79-19.36ZM184.74-31.35L184.74-31.35Q185.84-31.35 186.83-31.13L186.83-31.13L186.83-31.13Q187.82-30.91 188.48-30.58L188.48-30.58L188.48-20.07L188.48-20.07Q186.23-21.01 183.64-21.01L183.64-21.01L183.64-21.01Q180.18-21.01 178.31-19.20L178.31-19.20L178.31-19.20Q176.44-17.38 176.44-13.80L176.44-13.80L176.44-9.02L181.39-9.02L181.39 0L161.37 0L161.37-9.02L163.79-9.02L163.79-21.56L161.37-21.56L161.37-30.58L176.44-30.58L176.44-26.57L176.44-26.57Q177.98-28.88 179.96-30.11L179.96-30.11L179.96-30.11Q181.94-31.35 184.74-31.35L184.74-31.35ZM238.53-33.77L238.53-42.79L256.57-42.79L256.57-33.77L253.82-33.77L253.82 0L238.37 0L222.25-24.80L222.25-9.02L224.89-9.02L224.89 0L206.85 0L206.85-9.02L209.60-9.02L209.60-33.77L206.85-33.77L206.85-42.79L226.71-42.79L241.18-20.73L241.18-33.77L238.53-33.77ZM274.94 0.77L274.94 0.77Q267.13 0.77 262.74-3.33L262.74-3.33L262.74-3.33Q258.33-7.42 258.33-15.29L258.33-15.29L258.33-15.29Q258.33-23.16 262.74-27.25L262.74-27.25L262.74-27.25Q267.13-31.35 274.94-31.35L274.94-31.35L274.94-31.35Q282.87-31.35 287.21-27.20L287.21-27.20L287.21-27.20Q291.56-23.05 291.56-15.29L291.56-15.29L291.56-15.29Q291.56-7.42 287.15-3.33L287.15-3.33L287.15-3.33Q282.75 0.77 274.94 0.77L274.94 0.77ZM274.94-9.02L274.94-9.02Q276.54-9.02 277.34-9.87L277.34-9.87L277.34-9.87Q278.13-10.72 278.13-12.54L278.13-12.54L278.13-18.04L278.13-18.04Q278.13-19.86 277.34-20.71L277.34-20.71L277.34-20.71Q276.54-21.56 274.94-21.56L274.94-21.56L274.94-21.56Q273.35-21.56 272.55-20.71L272.55-20.71L272.55-20.71Q271.75-19.86 271.75-18.04L271.75-18.04L271.75-12.54L271.75-12.54Q271.75-10.72 272.55-9.87L272.55-9.87L272.55-9.87Q273.35-9.02 274.94-9.02L274.94-9.02ZM306.90 0.77L306.90 0.77Q301.07 0.77 298.13-2.06L298.13-2.06L298.13-2.06Q295.19-4.90 295.19-11.61L295.19-11.61L295.19-21.56L292.76-21.56L292.76-30.58L292.76-30.58Q294.85-30.58 295.90-31.65L295.90-31.65L295.90-31.65Q296.94-32.73 296.94-34.59L296.94-34.59L296.94-37.07L308.61-37.07L308.61-30.58L316.03-30.58L316.03-21.56L308.61-21.56L308.61-12.54L308.61-12.54Q308.61-10.72 309.40-9.87L309.40-9.87L309.40-9.87Q310.20-9.02 311.79-9.02L311.79-9.02L311.79-9.02Q313.88-9.02 316.36-9.52L316.36-9.52L316.36-0.88L316.36-0.88Q314.82-0.28 312.21 0.25L312.21 0.25L312.21 0.25Q309.59 0.77 306.90 0.77L306.90 0.77ZM365.81-42.79L375.10-9.02L377.30-9.02L377.30 0L355.74 0L355.74-9.02L359.04-9.02L358.16-13.42L350.68-13.42L349.80-9.02L353.10-9.02L353.10 0L334.29 0L334.29-9.02L336.49-9.02L345.78-42.79L365.81-42.79ZM354.14-30.20L351.89-19.25L356.95-19.25L354.69-30.20L354.14-30.20ZM400.29 0L383.90 0L376.97-21.56L374.66-21.56L374.66-30.58L391.65-30.58L391.65-21.56L389.34-21.56L392.26-10.67L392.81-10.67L395.72-21.56L393.41-21.56L393.41-30.58L409.36-30.58L409.36-21.56L407.05-21.56L400.29 0ZM440.00-9.02L442.42-9.02L442.42 0L427.90 0L427.90-3.74L427.90-3.74Q426.69-1.98 424.52-0.60L424.52-0.60L424.52-0.60Q422.34 0.77 419.21 0.77L419.21 0.77L419.21 0.77Q415.08 0.77 412.72-1.43L412.72-1.43L412.72-1.43Q410.35-3.63 410.35-7.65L410.35-7.65L410.35-7.65Q410.35-18.04 428.01-18.32L428.01-18.32L428.01-18.32Q427.84-20.18 426.58-20.87L426.58-20.87L426.58-20.87Q425.31-21.56 422.29-21.56L422.29-21.56L422.29-21.56Q419.81-21.56 416.98-21.04L416.98-21.04L416.98-21.04Q414.15-20.52 411.78-19.64L411.78-19.64L411.78-29.75L411.78-29.75Q414.70-30.47 418.11-30.91L418.11-30.91L418.11-30.91Q421.52-31.35 424.76-31.35L424.76-31.35L424.76-31.35Q432.96-31.35 436.48-28.38L436.48-28.38L436.48-28.38Q440.00-25.41 440.00-19.20L440.00-19.20L440.00-9.02ZM427.90-12.54L427.90-12.87L427.90-12.87Q425.42-12.87 424.08-12.21L424.08-12.21L424.08-12.21Q422.73-11.55 422.73-10.01L422.73-10.01L422.73-10.01Q422.73-9.07 423.31-8.50L423.31-8.50L423.31-8.50Q423.88-7.92 424.93-7.92L424.93-7.92L424.93-7.92Q426.36-7.92 427.13-9.13L427.13-9.13L427.13-9.13Q427.90-10.34 427.90-12.54L427.90-12.54ZM458.04-33.60L446.82-33.60L446.82-42.79L458.04-42.79L458.04-33.60ZM461.67 0L444.18 0L444.18-9.02L446.60-9.02L446.60-21.56L444.18-21.56L444.18-30.58L459.25-30.58L459.25-9.02L461.67-9.02L461.67 0ZM480.70 0.06L463.21 0.06L463.21-9.02L465.63-9.02L465.63-33.77L463.21-33.77L463.21-42.79L478.28-42.79L478.28-9.02L480.70-9.02L480.70 0.06ZM512.10-9.02L514.52-9.02L514.52 0L500.00 0L500.00-3.74L500.00-3.74Q498.79-1.98 496.62-0.60L496.62-0.60L496.62-0.60Q494.45 0.77 491.31 0.77L491.31 0.77L491.31 0.77Q487.19 0.77 484.82-1.43L484.82-1.43L484.82-1.43Q482.46-3.63 482.46-7.65L482.46-7.65L482.46-7.65Q482.46-18.04 500.11-18.32L500.11-18.32L500.11-18.32Q499.95-20.18 498.68-20.87L498.68-20.87L498.68-20.87Q497.42-21.56 494.39-21.56L494.39-21.56L494.39-21.56Q491.92-21.56 489.09-21.04L489.09-21.04L489.09-21.04Q486.25-20.52 483.89-19.64L483.89-19.64L483.89-29.75L483.89-29.75Q486.80-30.47 490.21-30.91L490.21-30.91L490.21-30.91Q493.62-31.35 496.87-31.35L496.87-31.35L496.87-31.35Q505.06-31.35 508.58-28.38L508.58-28.38L508.58-28.38Q512.10-25.41 512.10-19.20L512.10-19.20L512.10-9.02ZM500.00-12.54L500.00-12.87L500.00-12.87Q497.53-12.87 496.18-12.21L496.18-12.21L496.18-12.21Q494.83-11.55 494.83-10.01L494.83-10.01L494.83-10.01Q494.83-9.07 495.41-8.50L495.41-8.50L495.41-8.50Q495.99-7.92 497.03-7.92L497.03-7.92L497.03-7.92Q498.46-7.92 499.23-9.13L499.23-9.13L499.23-9.13Q500.00-10.34 500.00-12.54L500.00-12.54ZM539.88 0.77L539.88 0.77Q537.07 0.77 534.90-0.60L534.90-0.60L534.90-0.60Q532.73-1.98 531.35-3.74L531.35-3.74L531.35 0L516.28 0L516.28-9.02L518.70-9.02L518.70-33.77L516.28-33.77L516.28-42.79L531.35-42.79L531.35-26.84L531.35-26.84Q532.73-28.60 534.90-29.98L534.90-29.98L534.90-29.98Q537.07-31.35 539.88-31.35L539.88-31.35L539.88-31.35Q545.49-31.35 548.32-27.17L548.32-27.17L548.32-27.17Q551.15-22.99 551.15-15.29L551.15-15.29L551.15-15.29Q551.15-7.59 548.32-3.41L548.32-3.41L548.32-3.41Q545.49 0.77 539.88 0.77L539.88 0.77ZM534.54-9.02L534.54-9.02Q536.14-9.02 536.94-9.87L536.94-9.87L536.94-9.87Q537.74-10.72 537.74-12.54L537.74-12.54L537.74-18.04L537.74-18.04Q537.74-19.86 536.94-20.71L536.94-20.71L536.94-20.71Q536.14-21.56 534.54-21.56L534.54-21.56L534.54-21.56Q532.95-21.56 532.15-20.71L532.15-20.71L532.15-20.71Q531.35-19.86 531.35-18.04L531.35-18.04L531.35-12.54L531.35-12.54Q531.35-10.72 532.15-9.87L532.15-9.87L532.15-9.87Q532.95-9.02 534.54-9.02L534.54-9.02ZM570.18 0.06L552.69 0.06L552.69-9.02L555.11-9.02L555.11-33.77L552.69-33.77L552.69-42.79L567.76-42.79L567.76-9.02L570.18-9.02L570.18 0.06ZM588.33 0.77L588.33 0.77Q580.52 0.77 576.12-3.33L576.12-3.33L576.12-3.33Q571.72-7.42 571.72-15.29L571.72-15.29L571.72-15.29Q571.72-23.16 576.12-27.25L576.12-27.25L576.12-27.25Q580.52-31.35 588.33-31.35L588.33-31.35L588.33-31.35Q596.09-31.35 599.53-27.31L599.53-27.31L599.53-27.31Q602.96-23.27 602.96-17.27L602.96-17.27L602.96-13.31L585.14-13.31L585.14-12.98L585.14-12.98Q585.14-10.95 586.35-9.98L586.35-9.98L586.35-9.98Q587.56-9.02 590.37-9.02L590.37-9.02L590.37-9.02Q593.72-9.02 596.75-9.52L596.75-9.52L596.75-9.52Q599.77-10.01 602.03-10.78L602.03-10.78L602.03-1.98L602.03-1.98Q600.10-0.94 596.39-0.08L596.39-0.08L596.39-0.08Q592.68 0.77 588.33 0.77L588.33 0.77ZM585.14-19.36L591.52-19.36L591.52-20.02L591.52-20.02Q591.52-21.89 590.73-22.71L590.73-22.71L590.73-22.71Q589.93-23.54 588.33-23.54L588.33-23.54L588.33-23.54Q586.74-23.54 585.94-22.69L585.94-22.69L585.94-22.69Q585.14-21.84 585.14-20.02L585.14-20.02L585.14-19.36Z" fill="#ffffff"></path></g></g><style>text {
  font-size: 64px;
  font-family: Arial Black;
  dominant-baseline: central;
  text-anchor: middle;
}</style></svg>